<svg width="56" height="56" viewBox="0 0 56 56" xmlns="http://www.w3.org/2000/svg">
<path d="M28.4999 5.24219C22.9593 5.24242 17.5996 7.21412 13.3798 10.8045C9.15999 14.3949 6.3554 19.3696 5.46788 24.8386C4.58035 30.3077 5.66781 35.914 8.53567 40.6546C11.4035 45.3952 15.8646 48.9607 21.1208 50.713C22.2874 50.9172 22.7249 50.2172 22.7249 49.6047C22.7249 49.0505 22.6958 47.213 22.6958 45.2589C16.8332 46.338 15.3166 43.8298 14.8499 42.5173C14.3321 41.2407 13.5112 40.1095 12.4582 39.2214C11.6416 38.7839 10.4749 37.7047 12.429 37.6756C13.1752 37.7565 13.8909 38.0162 14.5154 38.4325C15.1399 38.8488 15.6548 39.4095 16.0166 40.0672C16.3357 40.6405 16.7648 41.1452 17.2793 41.5523C17.7939 41.9595 18.3837 42.2611 19.015 42.44C19.6463 42.6188 20.3067 42.6713 20.9583 42.5944C21.6099 42.5176 22.24 42.3129 22.8124 41.9922C22.9134 40.806 23.442 39.6969 24.2999 38.8714C19.1082 38.2881 13.6832 36.2755 13.6832 27.3506C13.6504 25.0316 14.5062 22.7879 16.0749 21.0798C15.3616 19.0643 15.445 16.8524 16.3082 14.8964C16.3082 14.8964 18.2623 14.2839 22.7249 17.2881C26.5429 16.238 30.5736 16.238 34.3916 17.2881C38.854 14.2548 40.8082 14.8964 40.8082 14.8964C41.6716 16.8524 41.755 19.0643 41.0416 21.0798C42.615 22.785 43.4715 25.0306 43.4332 27.3506C43.4332 36.3047 37.979 38.2881 32.7874 38.8714C33.3443 39.4358 33.7731 40.1134 34.0449 40.8583C34.3166 41.6031 34.4249 42.3977 34.3624 43.1881C34.3624 46.309 34.3332 48.8172 34.3332 49.6048C34.3332 50.2173 34.7707 50.9464 35.9374 50.7131C41.1843 48.9465 45.6326 45.3726 48.4882 40.6296C51.3438 35.8866 52.421 30.2831 51.5273 24.8194C50.6336 19.3557 47.8273 14.3874 43.6093 10.8014C39.3913 7.21537 34.0362 5.24507 28.4999 5.24219Z"/>
</svg>
