<svg width="57" height="56" viewBox="0 0 57 56" xmlns="http://www.w3.org/2000/svg">
<g clip-path="url(#clip0_20421_1460848)">
<path d="M13.2813 18.5872V54.8797H1.19652V18.5872H13.2813ZM14.0496 7.38275C14.0519 7.44771 14.0541 7.52387 14.0541 7.60227C14.0541 9.28003 13.3418 10.7898 12.2039 11.8471L12.1994 11.8493C10.9786 12.9648 9.34564 13.648 7.5514 13.648C7.44164 13.648 7.32964 13.6458 7.21988 13.6413H7.23556H7.16164C7.0698 13.6458 6.96228 13.648 6.85476 13.648C5.0986 13.648 3.50372 12.9626 2.31876 11.8471L2.321 11.8493C1.19204 10.7562 0.493164 9.22851 0.493164 7.53731C0.493164 7.48355 0.493164 7.42979 0.495404 7.37379V7.38275C0.493164 7.33571 0.493164 7.28195 0.493164 7.22819C0.493164 5.52131 1.21892 3.98467 2.377 2.90723L2.38148 2.90499C3.60004 1.79619 5.22852 1.11523 7.0138 1.11523C7.11684 1.11523 7.21764 1.11747 7.32068 1.12195H7.30724C7.40356 1.11747 7.51332 1.11523 7.62756 1.11523C9.38596 1.11523 10.9876 1.79395 12.1837 2.90275L12.1792 2.89827C13.3328 4.01155 14.0496 5.57059 14.0496 7.29763V7.39171V7.38723V7.38275ZM56.7485 34.0836V54.8797H44.7018V35.4701C44.713 35.2932 44.7175 35.0871 44.7175 34.881C44.7175 32.874 44.1597 30.9991 43.1898 29.3997L43.2167 29.4468C42.2602 28.1117 40.7146 27.2538 38.9696 27.2538C38.8352 27.2538 38.7008 27.2583 38.5664 27.2695H38.5844C38.5239 27.2672 38.4544 27.265 38.385 27.265C36.9962 27.265 35.7194 27.7421 34.7092 28.5418L34.7226 28.5328C33.7079 29.3549 32.9127 30.4055 32.4109 31.6128L32.393 31.6644C32.1332 32.4596 31.9853 33.3735 31.9853 34.3232C31.9853 34.4308 31.9876 34.5383 31.992 34.6458V34.6301V54.8842H19.9453C19.9946 45.1432 20.0192 37.2449 20.0192 31.1895C20.0192 25.134 20.0073 21.5209 19.9834 20.3501L19.9476 18.5917H31.9943V23.8647H31.9204C32.3997 23.0919 32.8948 22.4221 33.4391 21.7949L33.4212 21.8151C34.0506 21.1229 34.7271 20.498 35.4551 19.938L35.4909 19.9111C36.3959 19.2144 37.4576 18.6679 38.609 18.3341L38.6762 18.3184C39.8813 17.9578 41.2679 17.7495 42.7015 17.7495H42.8784H42.8695C43.0285 17.7428 43.2144 17.7383 43.4004 17.7383C47.1658 17.7383 50.5572 19.3376 52.9338 21.8957L52.9405 21.9047C55.4822 24.6763 56.753 28.7352 56.753 34.0813L56.7485 34.0836Z" fill="black"/>
</g>
<defs>
<clipPath id="clip0_20421_1460848">
<rect width="56" height="56" transform="translate(0.5)"/>
</clipPath>
</defs>
</svg>
