<svg fill="#000000" width="56px" height="56px" viewBox="-0.14 -0.14 1.68 1.68" xmlns="http://www.w3.org/2000/svg"><path d="M1.397 0.82v0.517h-0.299v-0.482c0 -0.121 -0.043 -0.204 -0.152 -0.204 -0.083 0 -0.132 0.056 -0.154 0.11 -0.008 0.019 -0.01 0.046 -0.01 0.073v0.503h-0.3s0.004 -0.816 0 -0.901h0.3v0.128l-0.002 0.003h0.002v-0.003c0.04 -0.061 0.111 -0.149 0.27 -0.149 0.197 0 0.345 0.129 0.345 0.405M0.169 0.002C0.067 0.002 0 0.069 0 0.157c0 0.086 0.065 0.156 0.166 0.156h0.002c0.105 0 0.169 -0.069 0.169 -0.156C0.335 0.069 0.272 0.002 0.17 0.002zM0.018 1.337h0.299V0.436H0.018z"/></svg>