<svg width="57" height="56" viewBox="0 0 57 56" xmlns="http://www.w3.org/2000/svg">
<path d="M54.6713 28C54.6713 34.9142 53.5146 40.5405 52.0761 40.5405C50.6376 40.5405 49.4808 34.9142 49.4808 28C49.4808 21.0858 50.6376 15.4595 52.0761 15.4595C53.5146 15.4595 54.6713 21.0858 54.6713 28ZM48.0423 28C48.0423 35.721 44.7488 42.0017 40.6713 42.0017C36.5938 42.0017 33.2776 35.721 33.2776 28C33.2776 20.279 36.5921 13.9983 40.6713 13.9983C44.7506 13.9983 48.0423 20.279 48.0423 28ZM31.8583 28C31.8338 36.1725 25.2031 42.7875 17.0271 42.7875C8.83705 42.7875 2.1958 36.148 2.1958 27.9563C2.1958 19.7645 8.8353 13.125 17.0271 13.125C21.1413 13.125 24.8653 14.7997 27.5516 17.507L27.5533 17.5088C30.2151 20.188 31.8583 23.8805 31.8583 27.9563C31.8583 27.972 31.8583 27.986 31.8583 28Z"/>
</svg>
